<?xml version="1.0" standalone="no"?>
<!DOCTYPE svg PUBLIC "-//W3C//DTD SVG 20010904//EN"
 "http://www.w3.org/TR/2001/REC-SVG-20010904/DTD/svg10.dtd">
<svg version="1.0" xmlns="http://www.w3.org/2000/svg"
 width="71.000000pt" height="45.000000pt" viewBox="0 0 71.000000 45.000000"
 preserveAspectRatio="xMidYMid meet">
<metadata>
Created by potrace 1.15, written by Peter Selinger 2001-2017
</metadata>
<g transform="translate(0.000000,45.000000) scale(0.100000,-0.100000)"
fill="#000000" stroke="none">
<path d="M123 429 c-86 -42 -127 -117 -121 -220 4 -79 35 -134 99 -176 53 -35
149 -43 213 -19 39 15 46 15 79 1 48 -20 149 -19 190 1 86 43 127 112 127 212
0 58 -4 75 -29 115 -46 71 -99 101 -185 105 -53 2 -80 -1 -106 -15 -33 -17
-37 -17 -70 0 -49 24 -143 23 -197 -4z m155 -18 c8 -4 14 -12 13 -17 0 -5 11
-8 24 -7 33 2 91 -62 75 -82 -15 -18 -3 -38 17 -31 13 5 15 -4 11 -59 -5 -74
-31 -120 -68 -120 -24 0 -42 -25 -18 -25 7 -1 -3 -9 -22 -20 -41 -23 -113 -26
-129 -6 -7 8 -20 12 -30 9 -24 -6 -88 47 -69 58 11 7 10 11 -2 18 -8 5 -17 8
-21 5 -10 -6 -29 53 -29 87 0 19 5 29 15 29 18 0 20 27 3 32 -19 7 24 73 48
73 10 0 19 7 19 15 0 34 125 65 163 41z m184 -32 c15 -8 27 -8 46 1 23 10 28
9 45 -14 11 -16 28 -26 43 -26 21 0 23 -4 18 -24 -4 -18 1 -28 22 -45 26 -21
27 -22 8 -42 -15 -17 -16 -25 -7 -50 9 -24 9 -29 -3 -29 -23 0 -54 -38 -47
-56 5 -15 2 -16 -26 -11 -24 5 -36 2 -51 -13 -20 -20 -20 -20 -49 1 -16 12
-34 18 -40 15 -16 -10 -14 -1 7 31 14 23 23 28 53 25 53 -4 89 28 89 79 0 56
-36 91 -88 87 -30 -2 -40 1 -53 22 -12 19 -13 29 -5 43 13 20 12 20 38 6z"/>
<path d="M165 285 c-14 -13 -25 -34 -25 -47 0 -13 -3 -32 -5 -43 -5 -16 3 -24
37 -39 24 -10 53 -23 65 -29 21 -10 38 -5 38 11 0 4 8 18 17 32 8 14 18 44 21
68 5 41 4 43 -30 57 -52 22 -90 19 -118 -10z"/>
</g>
</svg>
