<?xml version="1.0" standalone="no"?>
<!DOCTYPE svg PUBLIC "-//W3C//DTD SVG 20010904//EN"
 "http://www.w3.org/TR/2001/REC-SVG-20010904/DTD/svg10.dtd">
<svg version="1.0" xmlns="http://www.w3.org/2000/svg"
 width="58.000000pt" height="58.000000pt" viewBox="0 0 58.000000 58.000000"
 preserveAspectRatio="xMidYMid meet">
<metadata>
Created by potrace 1.15, written by Peter Selinger 2001-2017
</metadata>
<g transform="translate(0.000000,58.000000) scale(0.100000,-0.100000)"
fill="#000000" stroke="none">
<path d="M65 399 c-13 -11 -33 -19 -44 -19 -21 0 -21 -4 -21 -190 l0 -190 290
0 290 0 0 190 c0 171 -2 190 -17 190 -9 0 -25 8 -36 18 -17 15 -44 17 -229 18
-189 1 -211 -1 -233 -17z m75 -228 c0 -28 22 -61 40 -61 18 0 40 33 40 61 0
42 25 37 36 -8 17 -69 67 -68 80 3 8 43 34 46 34 5 0 -31 22 -61 45 -61 18 0
35 31 35 64 0 33 23 34 55 1 31 -31 31 -49 0 -80 -24 -25 -26 -25 -208 -25
-163 0 -187 2 -207 18 -30 24 -30 70 0 94 33 27 50 23 50 -11z"/>
</g>
</svg>
