<?xml version="1.0" standalone="no"?>
<!DOCTYPE svg PUBLIC "-//W3C//DTD SVG 20010904//EN"
 "http://www.w3.org/TR/2001/REC-SVG-20010904/DTD/svg10.dtd">
<svg version="1.0" xmlns="http://www.w3.org/2000/svg"
 width="58.000000pt" height="56.000000pt" viewBox="0 0 58.000000 56.000000"
 preserveAspectRatio="xMidYMid meet">
<metadata>
Created by potrace 1.15, written by Peter Selinger 2001-2017
</metadata>
<g transform="translate(0.000000,56.000000) scale(0.100000,-0.100000)"
fill="#000000" stroke="none">
<path d="M72 406 c-23 -8 -49 -20 -57 -26 -21 -18 -18 -57 5 -70 17 -9 20 -21
20 -75 0 -54 -3 -66 -20 -75 -28 -15 -28 -90 0 -115 32 -29 125 -45 267 -45
139 0 220 12 266 38 23 14 27 23 27 64 0 37 -4 50 -20 58 -17 9 -20 21 -20 75
0 55 3 66 21 75 32 18 22 60 -21 85 -32 18 -54 20 -230 22 -144 2 -206 -1
-238 -11z m261 -36 c34 -16 34 -27 1 -42 -25 -12 -26 -14 -22 -100 l3 -88
-122 0 -123 0 0 90 c0 87 -1 90 -27 103 l-27 14 25 13 c13 8 38 17 54 21 43
12 205 4 238 -11z m157 9 c62 -14 78 -29 48 -45 -13 -8 -31 -13 -40 -14 -22 0
-24 -30 -3 -30 12 0 15 -15 15 -75 l0 -75 -85 0 -85 0 0 75 0 75 55 0 c42 0
55 3 55 15 0 10 -10 15 -34 15 -30 0 -33 3 -29 21 4 15 0 27 -12 35 -17 13
-14 14 26 14 24 0 64 -5 89 -11z m-442 -251 c-2 -10 51 -14 237 -16 209 -2
241 0 252 13 6 9 14 12 17 7 28 -46 -260 -81 -419 -51 -75 14 -124 37 -104 50
18 11 19 11 17 -3z"/>
</g>
</svg>
