<?xml version="1.0" standalone="no"?>
<!DOCTYPE svg PUBLIC "-//W3C//DTD SVG 20010904//EN"
 "http://www.w3.org/TR/2001/REC-SVG-20010904/DTD/svg10.dtd">
<svg version="1.0" xmlns="http://www.w3.org/2000/svg"
 width="58.000000pt" height="54.000000pt" viewBox="0 0 58.000000 54.000000"
 preserveAspectRatio="xMidYMid meet">
<metadata>
Created by potrace 1.15, written by Peter Selinger 2001-2017
</metadata>
<g transform="translate(0.000000,54.000000) scale(0.100000,-0.100000)"
 stroke="none">
<path d="M358 514 c-30 -16 -50 -33 -54 -48 -4 -18 -34 -36 -135 -84 l-129
-60 0 -74 c0 -62 -3 -75 -20 -86 -29 -18 -26 -67 6 -97 48 -45 116 -60 264
-60 144 0 211 14 264 56 33 26 35 77 6 104 -17 15 -20 31 -20 97 0 98 -19 138
-91 199 -38 32 -48 45 -36 47 19 4 23 32 5 31 -7 0 -34 -12 -60 -25z m-53
-160 c38 -20 99 -10 141 23 33 25 37 24 53 -21 9 -23 8 -26 -12 -26 -18 0 -19
2 -7 10 13 9 13 11 0 20 -20 13 -27 12 -36 -1 -3 -6 -1 -15 7 -20 8 -5 -9 -9
-46 -11 -35 -2 -60 -8 -63 -15 -2 -9 7 -13 29 -13 26 0 30 -3 21 -12 -7 -7
-12 -26 -13 -43 -1 -29 -1 -29 -8 -5 -5 18 -14 25 -31 25 -22 0 -25 -5 -28
-37 -2 -21 -8 -38 -14 -38 -7 0 -8 16 -4 44 6 37 4 46 -11 55 -15 9 -13 10 15
11 22 0 32 5 32 15 0 12 -16 15 -80 15 -64 0 -80 -3 -80 -15 0 -11 12 -15 43
-16 23 0 36 -3 30 -6 -7 -2 -14 -19 -14 -36 -1 -18 -3 -24 -6 -15 -5 20 -41
34 -53 21 -5 -4 -10 -21 -13 -38 -3 -25 -4 -23 -6 11 0 23 -8 47 -16 54 -27
22 -16 35 58 72 56 28 73 33 77 22 3 -8 19 -21 35 -30z m-251 -246 c6 -4 63
-8 126 -8 85 -1 120 -4 134 -15 26 -20 110 -20 126 0 7 8 25 15 40 15 40 0 60
10 60 29 0 13 2 13 9 2 14 -22 2 -40 -38 -60 -108 -55 -334 -55 -443 0 -38 19
-49 35 -40 58 5 13 6 13 10 0 3 -7 10 -17 16 -21z"/>
</g>
</svg>
