<?xml version="1.0" standalone="no"?>
<!DOCTYPE svg PUBLIC "-//W3C//DTD SVG 20010904//EN"
 "http://www.w3.org/TR/2001/REC-SVG-20010904/DTD/svg10.dtd">
<svg version="1.0" xmlns="http://www.w3.org/2000/svg"
 width="46.000000pt" height="58.000000pt" viewBox="0 0 46.000000 58.000000"
 preserveAspectRatio="xMidYMid meet">
<metadata>
Created by potrace 1.15, written by Peter Selinger 2001-2017
</metadata>
<g transform="translate(0.000000,58.000000) scale(0.100000,-0.100000)"
fill="#000000" stroke="none">
<path d="M230 571 c0 -5 -11 -12 -25 -15 -13 -3 -29 -15 -35 -26 -6 -11 -17
-20 -25 -20 -7 0 -31 -24 -53 -52 -22 -29 -52 -64 -66 -78 -34 -34 -33 -62 12
-235 l37 -140 151 -3 c113 -2 154 1 161 10 13 16 73 270 73 309 0 18 -7 32
-20 39 -11 6 -20 16 -20 22 0 6 -7 20 -17 30 -17 19 -36 50 -52 85 -5 12 -30
35 -55 52 -45 31 -66 38 -66 22z m-174 -228 c0 -10 7 -19 17 -21 20 -4 24 24
5 31 -7 3 14 5 47 6 68 0 90 -7 90 -29 0 -8 8 -16 18 -18 20 -4 24 24 5 31 -7
3 17 6 54 6 54 1 66 -2 62 -13 -6 -16 11 -30 26 -21 8 5 7 12 -1 22 -11 12 -8
13 17 7 43 -11 49 -28 11 -34 -37 -7 -377 -3 -384 4 -7 6 16 46 26 46 5 0 8
-8 7 -17z"/>
</g>
</svg>
